<?xml version="1.0" encoding="utf-8"?>
<!-- Generator: Adobe Illustrator 27.5.0, SVG Export Plug-In . SVG Version: 6.00 Build 0)  -->
<svg version="1.1" xmlns="http://www.w3.org/2000/svg" xmlns:xlink="http://www.w3.org/1999/xlink" x="0px" y="0px"
	 viewBox="0 0 500 500" style="enable-background:new 0 0 500 500;" xml:space="preserve">
<g id="Floor">
	<path id="Floor_9_" style="fill:#F5F5F5;" d="M86.285,447.603c-90.417-52.203-90.417-136.84,0-189.042s237.013-52.202,327.431,0
		s90.418,136.839,0,189.042S176.702,499.806,86.285,447.603z"/>
</g>
<g id="Shadow">
	<ellipse id="Shadow_10_" style="fill:#E0E0E0;" cx="158.643" cy="409.106" rx="71.036" ry="41.013"/>
	
		<ellipse id="Shadow_1_" transform="matrix(0.8802 -0.4747 0.4747 0.8802 -128.2153 183.2803)" style="fill:#E0E0E0;" cx="298.885" cy="345.575" rx="101.34" ry="50.428"/>
</g>
<g id="Plants">
	<g id="Plants_1_">
		<g>
			<path style="fill:#27DEBF;" d="M371.852,331.713c9.852-11.743,25.282-19.395,42.633-23.909
				c17.13-4.457,20.202-14.997,8.846-18.417c-12.873-3.877-28.934,3.248-39.291,13.157c-18.05,17.269-20.312,30.487-20.312,30.487
				L371.852,331.713z"/>
			<path style="opacity:0.15;" d="M371.852,331.713c9.852-11.743,25.282-19.395,42.633-23.909
				c17.13-4.457,20.202-14.997,8.846-18.417c-12.873-3.877-28.934,3.248-39.291,13.157c-18.05,17.269-20.312,30.487-20.312,30.487
				L371.852,331.713z"/>
			<g>
				<path style="fill:#FFFFFF;" d="M366.779,331.027c-0.074,0-0.148-0.017-0.219-0.051c-0.249-0.121-0.352-0.42-0.23-0.668
					c14.62-29.998,46.974-37.378,54.839-36.822c0.275,0.02,0.481,0.261,0.462,0.536c-0.021,0.275-0.275,0.481-0.536,0.462
					c-7.68-0.589-39.471,6.727-53.866,36.262C367.142,330.924,366.963,331.027,366.779,331.027z"/>
			</g>
		</g>
		<g>
			<path style="fill:#27DEBF;" d="M363.727,334.834c0,2.121,2.298,3.407,4.131,2.339c9.159-5.334,22.522-8.279,44.145-2.127
				c11.496,3.271,17.155,1.083,19.58-3.599c2.693-5.2-3.013-10.225-9.506-12.597c-22.129-8.086-42.102-2.565-58.351,13.567
				L363.727,334.834z"/>
			<g>
				<path style="fill:#FFFFFF;" d="M364.986,335.263c-0.138,0-0.274-0.057-0.373-0.167c-0.184-0.206-0.166-0.521,0.04-0.706
					c19.105-17.077,48.708-13.753,59.911-7.092c0.237,0.141,0.315,0.448,0.174,0.686c-0.142,0.237-0.448,0.314-0.686,0.174
					c-10.976-6.525-39.991-9.774-58.733,6.978C365.224,335.221,365.105,335.263,364.986,335.263z"/>
			</g>
		</g>
	</g>
	<g id="Plants_2_">
		<g>
			<path style="fill:#27DEBF;" d="M149.917,374.655c-8.398-12.823-22.817-22.243-39.515-28.772
				c-16.485-6.447-18.291-17.276-6.611-19.332c13.24-2.332,28.349,6.639,37.464,17.7c15.886,19.278,16.573,32.671,16.573,32.671
				L149.917,374.655z"/>
			<path style="opacity:0.15;" d="M149.917,374.655c-8.398-12.823-22.817-22.243-39.515-28.772
				c-16.485-6.447-18.291-17.276-6.611-19.332c13.24-2.332,28.349,6.639,37.464,17.7c15.886,19.278,16.573,32.671,16.573,32.671
				L149.917,374.655z"/>
			<g>
				<path style="fill:#FFFFFF;" d="M155.035,374.572c0.074,0.009,0.149,0.001,0.223-0.025c0.262-0.091,0.399-0.375,0.308-0.636
					c-10.979-31.513-42.236-42.659-50.112-43.035c-0.276-0.012-0.509,0.202-0.522,0.478c-0.012,0.276,0.217,0.51,0.478,0.522
					c7.696,0.321,38.402,11.336,49.212,42.364C154.687,374.427,154.852,374.551,155.035,374.572z"/>
			</g>
		</g>
		<g>
			<path style="fill:#27DEBF;" d="M157.902,376.312c-0.368,3.092-3.866,4.697-6.453,2.963c-8.476-5.679-21.107-9.363-41.796-6.047
				c-11.802,1.892-17.163-0.948-19.019-5.884c-2.061-5.482,4.198-9.798,10.925-11.388
				C124.488,350.537,143.67,358.375,157.902,376.312L157.902,376.312z"/>
			<g>
				<path style="fill:#FFFFFF;" d="M156.316,378.99c0.137,0.016,0.279-0.024,0.39-0.122c0.207-0.183,0.226-0.498,0.043-0.706
					c-16.957-19.212-46.745-19.403-58.656-14.11c-0.252,0.112-0.366,0.408-0.254,0.66c0.113,0.252,0.408,0.365,0.66,0.254
					c11.669-5.185,40.865-4.988,57.5,13.859C156.085,378.92,156.198,378.976,156.316,378.99z"/>
			</g>
		</g>
	</g>
</g>
<g id="Check_mark">
	<g id="Check_Mark_1_">
		<g id="Circle">
			<path id="XMLID_392_" style="fill:#37474F;" d="M380.823,146.171l0.003-0.007l-0.158-0.081c-0.006-0.003-0.011-0.006-0.017-0.009
				l-38.119-21.944c-0.012-0.006-0.024-0.012-0.036-0.019l-0.223-0.114l-0.004,0.01c-17.807-8.983-41.569-6.289-67.125,10.236
				c-51.343,33.2-90.467,109.618-87.386,170.683c1.536,30.438,13.271,51.309,31.011,60.484l-0.004,0.007l0.157,0.08
				c0.007,0.004,0.013,0.007,0.02,0.01l38.127,21.949c0.006,0.002,0.011,0.005,0.017,0.008l0.187,0.096l0.004-0.008
				c17.812,9.011,41.593,6.325,67.171-10.215c51.342-33.201,90.467-109.617,87.386-170.682
				C410.298,176.217,398.562,155.345,380.823,146.171z"/>
			<path id="XMLID_384_" style="fill:#263238;" d="M255.772,386.761l-36.818-21.258c-0.028,0.002-0.028,0.002-0.028,0.002
				l-0.171-0.103c-17.73-9.198-29.46-30.07-30.993-60.465c-1.375-27.233,5.662-57.504,18.395-85.617l0.257-0.616l37.876,22.557
				c-12.761,28.114-19.77,58.384-18.396,85.618C227.396,356.663,238.667,377.28,255.772,386.761z"/>
			<path id="XMLID_359_" style="fill:#455A64;" d="M324.448,377.336c51.342-33.201,90.466-109.617,87.385-170.682
				c-3.081-61.064-47.2-83.653-98.543-50.452c-51.343,33.2-90.467,109.617-87.386,170.682
				C228.986,387.949,273.105,410.536,324.448,377.336z"/>
		</g>
		<path id="Shadow_7_" style="fill:#37474F;" d="M367.928,141.434l-64.347,132.54l-13.851-15.011
			c-4.273-4.642-10.363-7.304-16.708-7.304c-5.742,0-11.232,2.14-15.463,6.03c-9.209,8.509-9.783,22.938-1.278,32.164l36.486,39.524
			c4.039,4.375,9.541,6.961,15.492,7.283c0.42,0.022,0.84,0.034,1.262,0.034c1.088,0,2.191-0.079,3.298-0.236
			c7.465-1.109,13.877-5.813,17.149-12.578l73.8-152.009C396.234,155.018,383.627,144.537,367.928,141.434z"/>
		<g>
			<path style="fill:#27DEBF;" d="M420.187,97.772c-0.402-0.231-0.814-0.45-1.237-0.655c-9.825-4.75-21.678-0.653-26.42,9.142
				L310.645,274.92l-4.652-5.041c-1.385-1.504-2.954-2.74-4.642-3.707c-2.443-1.4-12.822-7.411-14.501-8.38
				c-7.277-4.2-16.773-3.409-23.308,2.6c-7.995,7.387-8.493,19.915-1.11,27.925l36.486,39.525c1.388,1.504,2.977,2.76,4.711,3.747
				c2.382,1.355,12.725,7.351,14.417,8.333c2.668,1.548,5.683,2.456,8.845,2.627c1.304,0.07,2.613,0.017,3.957-0.174
				c6.479-0.963,12.052-5.049,14.892-10.92l96.872-199.531c4.549-9.39,1-20.638-7.888-25.758
				C434.318,105.931,422.774,99.261,420.187,97.772z"/>
			<path style="opacity:0.15;" d="M420.187,97.772c-0.402-0.231-0.814-0.45-1.237-0.655c-9.825-4.75-21.678-0.653-26.42,9.142
				L310.645,274.92l-4.652-5.041c-1.385-1.504-2.954-2.74-4.642-3.707c-2.443-1.4-12.822-7.411-14.501-8.38
				c-7.277-4.2-16.773-3.409-23.308,2.6c-7.995,7.387-8.493,19.915-1.11,27.925l36.486,39.525c1.388,1.504,2.977,2.76,4.711,3.747
				c2.382,1.355,12.725,7.351,14.417,8.333c2.668,1.548,5.683,2.456,8.845,2.627c1.304,0.07,2.613,0.017,3.957-0.174
				c6.479-0.963,12.052-5.049,14.892-10.92l96.872-199.531c4.549-9.39,1-20.638-7.888-25.758
				C434.318,105.931,422.774,99.261,420.187,97.772z"/>
			<path style="opacity:0.15;" d="M318.043,339.92c-1.686-0.978-12.032-6.975-14.416-8.335c-1.732-0.987-3.325-2.244-4.712-3.744
				l-36.486-39.522c-1.657-1.807-2.905-3.855-3.771-6.007l14.509,8.372c0.857,2.16,2.123,4.209,3.79,6.016l36.486,39.522
				C314.802,337.694,316.348,338.933,318.043,339.92z"/>
			<path style="opacity:0.15;" d="M411.633,108.561c-1.862,1.658-3.427,3.706-4.582,6.081L322.83,288.124l-12.181-13.205
				l81.885-168.658c1.145-2.384,2.728-4.423,4.591-6.081L411.633,108.561z"/>
			<path id="Check_4_" style="fill:#27DEBF;" d="M433.473,105.503c-9.825-4.75-21.678-0.653-26.42,9.141l-84.224,173.48
				l-16.835-18.245c-7.356-7.99-19.885-8.498-27.928-1.102c-7.995,7.387-8.493,19.915-1.11,27.925l36.486,39.525
				c3.505,3.796,8.282,6.042,13.45,6.322c1.304,0.07,2.613,0.017,3.957-0.174c6.479-0.963,12.052-5.049,14.892-10.92l96.873-199.531
				C447.368,122.105,443.271,110.254,433.473,105.503z"/>
		</g>
	</g>
</g>
<g id="Character">
	<g id="Character_15_">
		<g>
			<path style="fill:#9E6767;" d="M157.228,124.987c-7.627,0-12.851,1.986-18.269,9.703c-4.969,7.078-18.64,30.677-18.64,30.677
				s-9.969-20.514-11.005-24.607c-1.036-4.092-0.944-5.909,0.041-7.686c1.213-2.189,2.295-4.107,2.525-7.036
				c0.386-4.913,1.593-9.123,0.489-9.263c-3.054-0.175-3.169,3.741-4.772,6.058c-0.572,0.826-2.442,0.947-3.073-0.337
				c-0.674-1.37-0.311-3.617-0.638-5.237c0.146-1.401,0.273-1.854,0.432-2.675c0.86,0.2,2.111,0.224,3.5,0.098
				c1.318,2.072,2.223,2.943,4.062,2.102c0.243-0.388-0.79-3.044-1.986-4.959c-0.189-0.303-0.477-0.533-0.821-0.628
				c-1.848-0.51-3.943-0.635-6.782-0.186c-0.335,0.053-0.68,0.202-0.869,0.483c-1.059,1.57-1.693,3.16-1.951,3.968
				c-0.136,0.426-0.53,0.415-0.629,0.046c-0.975-4.829-0.989-11.686-0.989-14.902c0-2.526-3.697-2.923-3.826,0.696
				c-0.132,3.707-0.228,10.569,0.25,14.573c0.057,0.436-0.436,0.645-0.615,0.167c-0.644-1.716-2.213-6.882-2.871-15.801
				c-0.177-2.396-4.057-2.792-4.028,0.58c0.079,9.24,2.221,17.759,2.221,17.759c0.113,0.423-0.27,0.793-0.563,0.314
				c-1.29-2.11-3.319-7.351-4.346-10.957c-0.823-2.893-4.691-2.159-4.015,1.449c1.213,6.471,3.134,14.659,5.995,20.504
				c3.06,6.252,5.708,9.379,7.224,14.29c1.516,4.912,7.812,32.723,14.54,43.563c5.271,8.493,11.302,7.712,17.788,3.232
				c6.486-4.48,29.678-36.794,29.678-36.794L157.228,124.987z"/>
			<path style="fill:#874C4C;" d="M120.319,165.366c0,0,3.253,5.516,3.747,9.921c0,0,1.571-6.308-2.293-12.42L120.319,165.366z"/>
			<path style="fill:#455A64;" d="M158.848,125.012c-3.88-0.399-8.703-0.533-14.092,2.854c-5.389,3.387-7.258,8.116-9.866,12.243
				c-2.608,4.128-11.633,18.762-11.633,18.762s3.309,13.891,16.475,16.753l19.71-26.744L158.848,125.012z"/>
		</g>
		<g>
			<g id="XMLID_471_">
				<path id="XMLID_1137_" style="fill:#263238;" d="M176.524,369.227c0.962-0.122,2.324,3.283,2.344,4.395
					c0.019,1.112-1.095,3.501-2.571,5.739c-1.475,2.238-3.519,5.009-4.845,8.626c-1.13,3.081-2.173,5.102-5.319,9.135
					c-3.505,4.493-11.719,12.007-24.204,8.735c-3.047-0.798-4.571-1.759-5.674-2.867c-0.931-0.935-1.373-2.452-0.873-3.819
					L176.524,369.227z"/>
				<path id="XMLID_1136_" style="fill:#37474F;" d="M152.005,365.332c-0.01,0.035-0.019,0.071-0.027,0.106
					c-0.216,0.918-0.033,1.875,0.083,2.811c0.408,3.282-0.029,6.666-1.259,9.737c-0.827,2.064-2.01,3.983-3.474,5.655
					c-1.491,1.702-3.931,3.502-5.834,4.717c-6.325,4.037-7.004,6.734-6.113,10.812c2.115,4.75,16.451,7.641,24.692,0.565
					c3.22-2.765,5.664-5.193,7.844-10.666c1.533-3.848,2.68-6.027,4.157-8.799c1.597-2.996,4.619-6.382,4.707-9.473
					c0.048-1.698-1.633-4.857-3.267-7.46c-1.499-2.388-3.043-4.659-4.392-4.393l0.372,1.35c-1.123,1.168-2.755,1.603-3.74,2.974
					c-1.215,1.691-1.171,3.963-1.927,5.903c-0.073,0.187-0.175,0.391-0.367,0.449c-0.204,0.062-0.426-0.08-0.526-0.268
					c-0.1-0.188-0.109-0.41-0.116-0.624c-0.029-0.97-0.059-1.94-0.088-2.91c-0.017-0.555-0.052-1.16-0.421-1.576
					c-0.78-0.882-2.704-0.778-3.772-0.822c-1.465-0.06-2.858,0.168-4.308,0.259c-0.539,0.034-0.943,0.001-1.402,0.37
					C152.429,364.371,152.143,364.839,152.005,365.332z"/>
			</g>
			<g>
				<path style="fill:#9E6767;" d="M130.819,307.194c3.332,10.948,18.899,48.854,19.834,51.135c0.936,2.281,3.097,7.524,3.097,7.524
					s2.543,1.047,6.323,0.263c0.327,3.631,0.875,9.324,1.091,12.196c0.072,3.33,0.362,7.443-0.354,10.734
					c-0.611,2.804-1.317,5.742-1.846,8.551c-0.234,1.244-0.468,2.488-0.655,3.74c-0.199,1.323-0.327,2.753,0.313,3.928
					c0.3,0.551,0.751,1.005,1.235,1.403c2.157,1.775,5.06,2.529,7.845,2.303c1.473-0.12,2.956-0.516,4.157-1.377
					c2.419-1.734,3.271-4.744,4.502-7.303c1.337-2.776,0.903-3.08,1.017-6.053c0.08-2.079,0.656-7.361,1.488-12.879
					c0.832-5.518,4.413-24.919,6.131-44.252c1.189-13.384-0.001-25.798-0.001-25.798c13.661-37.113,19.743-59.176,21.529-71.503
					c1.814-12.521,0.945-16.976,0.715-24.183l-66.428,1.599C135.472,251.557,126.349,292.509,130.819,307.194z M163.269,248.309
					L163.269,248.309L163.269,248.309L163.269,248.309L163.269,248.309z"/>
				<path style="fill:#27DEBF;" d="M129.782,279.788c1.368-12.62,10.807-61.131,10.807-61.131h66.925c0,0,0.423,9.313,0.302,13.589
					c-0.121,4.276-1.494,12.099-3.891,21.982c-2.396,9.883-11.245,37.886-12.955,42.02c-1.711,4.134-5.024,16.071-5.024,16.071
					c1.642,22.444-2.626,42.583-5.827,69.349c0,0-0.926,3.615-10.411,2.899c-9.217-0.696-11.077-4.093-11.077-4.093l-0.617-23.096
					c0,0-5.04,1.546-7.999,0.838c0,0-19.809-48.902-20.767-51.848C128.293,303.42,128.413,292.407,129.782,279.788z"/>
				<path style="opacity:0.45;" d="M129.782,279.788c1.368-12.62,10.807-61.131,10.807-61.131h66.925c0,0,0.423,9.313,0.302,13.589
					c-0.121,4.276-1.494,12.099-3.891,21.982c-2.396,9.883-11.245,37.886-12.955,42.02c-1.711,4.134-5.024,16.071-5.024,16.071
					c1.642,22.444-2.626,42.583-5.827,69.349c0,0-0.926,3.615-10.411,2.899c-9.217-0.696-11.077-4.093-11.077-4.093l-0.617-23.096
					c0,0-5.04,1.546-7.999,0.838c0,0-19.809-48.902-20.767-51.848C128.293,303.42,128.413,292.407,129.782,279.788z"/>
				<path style="opacity:0.2;" d="M158.166,250.281c-9.476-8.545-11.583-15.343-11.583-15.343
					c7.063,8.336,16.687,13.372,16.687,13.372s-8.998,47.521-8.343,57.292c0.654,9.771,3.09,51.776,3.09,51.776
					c0.018,0.404-6.38-44.424-6.562-48.007C150.976,299.934,158.166,250.281,158.166,250.281z"/>
			</g>
			<g id="XMLID_419_">
				<path id="XMLID_470_" style="fill:#263238;" d="M179.025,405.464c0.933,0.266,0.816,3.05,0.395,4.082
					c-0.421,1.031-2.083,3.004-4.324,4.483c-2.241,1.479-4.326,3.55-6.346,6.836c-1.436,2.335-5.056,6.778-9.951,9.712
					c-4.894,2.934-12.128,3.96-17.502,2.433c-6.278-1.783-6.863-3.321-6.804-5.69L179.025,405.464z"/>
				<path id="XMLID_434_" style="fill:#455A64;" d="M159.6,390.923c-1.646,8.038-4.517,13.873-11.174,18.82
					c-5.293,3.933-9.139,5.932-13.362,9.448c-1.799,1.498-1.95,4.69-0.571,8.13c2.854,2.293,6.914,3.604,12.368,3.596
					c6.095-0.009,8.44-1.084,11.938-3.479c2.014-1.379,3.407-2.638,4.777-4.013c2.928-2.938,4.969-6.565,7.083-8.894
					c2.114-2.33,6.685-4.708,7.985-7.52c0.714-1.545,0.411-5.116-0.067-8.155c-0.439-2.789,0.416-7.688-0.93-7.974
					c0.029,0.006-0.183,1.996-0.183,1.996c-0.11,0.453-0.392,0.682-1.335,1.008c-0.63,0.218-1.917,0.186-2.574,0.077
					c-0.769-0.128-1.209-0.116-1.721,0.487c-0.903,1.064-1.143,2.56-2.3,3.439c-0.081,0.062-0.168,0.12-0.268,0.142
					c-0.099,0.022-0.214-0.001-0.279-0.079c-0.072-0.088-0.063-0.215-0.051-0.328c0.111-0.996,0.223-1.993,0.334-2.99
					c0.034-0.301,0.067-0.606,0.025-0.906c-0.079-0.556-0.5-1.031-0.966-1.314c-0.815-0.496-1.77-0.86-2.687-1.116
					c-0.973-0.272-1.975-0.417-2.98-0.508C161.652,390.697,160.598,390.677,159.6,390.923z"/>
			</g>
		</g>
		<path id="XMLID_418_" style="fill:#27DEBF;" d="M201.466,127.866c0,0,2.757,3.787,4.964,11.577c0,0,4.202,17.811,4.202,38.919
			c0,17.664-2.384,46.297-2.384,46.297c-20.506,10.279-53.587,4.2-68.145-5.824c0.589-3.183,1.089-19.901,2.233-30.93
			c0.776-18.923,1.414-28.838,1.548-37.255c0.267-16.821,8.639-25.508,14.963-25.637l16.059,0.251L201.466,127.866z"/>
		<g>
			<path style="fill:#874C4C;" d="M206.527,219.465c-3.048,2.51-9.036,7.333-10.131,9.762c-1.254,2.782-2.034,6.969-2.849,8.586
				c-0.815,1.617,0.435,2.372,2.192,1.808c1.756-0.564,2.815-2.066,4.171-5.704c1.356-3.638,5.138-6.486,5.138-6.486
				L206.527,219.465z"/>
			<path style="fill:#9E6767;" d="M195.392,252.203c0.727,1.407,2.433,1.413,4.012,1.541c2.247,0.182,3.516,0.024,5.669-0.645
				c2.153-0.669,4.161-1.944,5.451-3.794c1.541-2.211,1.933-4.995,2.812-7.543c1.847-5.355,7.328-9.209,8.221-14.88
				c0.369-2.345,0.372-5.101,1.037-6.556c0.391-0.856,9.4-16.368,12.613-23.087c3.088-6.458,5.397-9.497,2.598-17.262
				c-2.799-7.765-12.335-35.071-19.08-44.559c-3.826-5.383-9.898-6.916-17.258-7.554c-5.599,14.589,0.918,29.654,0.918,29.654
				l14.812,28.577c0,0-5.758,19.679-9.358,30.623c-1,3.04-3.021,4.918-5.292,8.288c-0.986,1.463-3.255,4.025-4.061,5.595
				c-1.038,2.021-1.011,3.316-1.498,6.146C196.212,241.26,195.045,251.532,195.392,252.203z"/>
			<path style="fill:#455A64;" d="M200.677,127.788c3.868,0.155,9.428,0.809,12.754,2.488c3.326,1.679,5.625,3.754,9.453,11.411
				c3.827,7.658,9.401,22.539,9.401,22.539s-1.85,11.228-19.606,14.142l-12.002-22.128
				C200.677,156.241,195.329,142.454,200.677,127.788z"/>
		</g>
		<g id="XMLID_1138_">
			<g id="XMLID_1146_">
				<g>
					<path style="fill:#37474F;" d="M154.545,92.046c0.579,0.844,0.901,1.997,1.358,2.919c0.643,1.298,1.287,2.613,2.244,3.715
						c2.301,2.651,5.538,4.594,8.48,6.47c1.787,1.14,3.826,2.212,6.009,1.899c2.216-0.318,4.612,0.163,6.869,0.365
						c2.623,0.235,5.245,0.47,7.868,0.705l-0.444,8.274c0,0,0.975-2.194,2.308-4.81c1.146-2.249,5.924-13.666,5.942-13.709
						c2.368-5.657,5.182-13.194,2.347-19.137c-0.669-1.402-1.66-2.709-3.077-3.528c0.285-1.091,0.375-1.85,0.26-2.817
						c-0.381-3.198-2.008-5.027-4.178-6.624s-4.796-2.453-7.422-3.057c-3.518-0.809-7.13-1.209-10.739-1.195
						c-3.591,0.014-7.012,0.616-10.536,1.21c-1.941,0.327-3.9,0.591-5.871,0.613c-0.827,0.009-1.745,0.064-2.542-0.121
						c-1.033-0.24-2.068-0.747-3.066-1.107c-0.178-0.064-0.379-0.127-0.548-0.044c-0.172,0.084-0.246,0.287-0.296,0.472
						c-0.632,2.313,0.163,5.32,1.634,7.213c-0.601-0.076-1.066-0.28-1.301-0.378c-0.486-0.203-0.907-0.482-1.351-0.759
						c-0.798-0.498-1.287-1.077-1.898-1.811c-0.085-0.102-0.181-0.211-0.312-0.234c-0.198-0.035-0.367,0.138-0.486,0.3
						c-1.14,1.557-1.425,3.635-1.04,5.527c0.385,1.891,1.384,3.612,2.602,5.11c-1.307,1.942-1.327,4.582-0.354,6.711
						c0.432,0.945,1.043,1.799,1.767,2.542c0.897,0.92,1.961,1.672,2.905,2.528C152.64,90.163,153.801,90.962,154.545,92.046z"/>
					<path style="fill:#9E6767;" d="M178.511,78.268c0.022,2.205,0.333,3.745,0.566,4.424c0.465,1.356,1.242,2.251,2.233,3.288
						c1.016,1.063,2.276,1.91,3.097,3.13c1.12,1.665,1.505,3.811,1.741,5.759c0.143,1.185,0.507,2.476,1.521,3.104
						c2.139,1.323,3.421-1.243,4.562-2.502c1.472-1.361,5.835-3.019,7.854,1.618c2.091,4.804-1.763,11.165-5.275,12.143
						c-6.053,1.686-7.367-2.432-7.367-2.432l-1.16,21.6c-3.418,6.473-11.438,8.527-16.707,7.497
						c-4.549-0.889-7.049-4.076-2.771-8.702l0.231-6.578c0,0-5.456,0.648-8.092,0.152c-4.385-0.825-6.559-4.55-7.741-9.364
						c-1.898-7.731-2.766-15.857-0.419-33.263c1.078-0.594,5.403,2.777,11.952,3.229C169.243,81.821,175.246,80.073,178.511,78.268z
						"/>
				</g>
				<path id="XMLID_1147_" style="fill:#874C4C;" d="M167.037,120.618c0,0,9.901-1.662,13.4-3.379
					c2.342-1.149,4.306-3.208,4.907-4.549c0,0-0.739,2.898-2.881,5.46c-2.62,3.134-15.511,5.085-15.511,5.085L167.037,120.618z"/>
			</g>
			<g id="XMLID_1139_">
				<path id="XMLID_1144_" style="fill:#263238;" d="M172.15,85.96l4.609,1.41c0.359-1.314-0.382-2.695-1.654-3.085
					C173.832,83.895,172.509,84.645,172.15,85.96z"/>
				<path id="XMLID_1143_" style="fill:#874C4C;" d="M170.548,107.839l-6.785,2.298c0.601,1.943,2.607,3.003,4.481,2.369
					C170.118,111.872,171.149,109.782,170.548,107.839z"/>
				<path style="fill:#F28F8F;" d="M170,109.5c-1.874,0-3.436,1.295-3.869,3.035c0.667,0.206,1.399,0.213,2.113-0.028
					c1.316-0.446,2.202-1.614,2.413-2.94C170.442,109.531,170.225,109.5,170,109.5z"/>
				<path id="XMLID_1142_" style="fill:#263238;" d="M151.574,86.734l4.681-0.617c-0.139-1.273-1.3-2.167-2.593-1.997
					C152.37,84.29,151.435,85.46,151.574,86.734z"/>
				<path style="fill:#263238;" d="M180.402,88.732l15.465,5.3c0,0-2.423-0.196-4.456,2.262l-10.954-4.161L180.402,88.732z"/>
				<path id="XMLID_1141_" style="fill:#263238;" d="M153.876,94.765c-0.034,1.06,0.765,1.944,1.786,1.974
					c1.02,0.03,1.876-0.804,1.91-1.865c0.035-1.06-0.765-1.944-1.785-1.975C154.766,92.869,153.911,93.704,153.876,94.765z"/>
				<path id="XMLID_394_" style="fill:#263238;" d="M171.55,94.774c-0.034,1.06,0.765,1.944,1.786,1.974
					c1.02,0.03,1.876-0.804,1.91-1.865c0.035-1.06-0.765-1.945-1.785-1.975C172.44,92.879,171.585,93.714,171.55,94.774z"/>
				<g>
					<path style="fill:#263238;" d="M144.754,89.854c0.068,0.94,0.668,1.814,0.976,2.18c0.162,0.193,0.312,0.447,0.392,0.777
						c0.361,1.487,0.669,4.305,1.374,5.888c0.708,1.581,2.185,4.089,6.338,4.184c0.808,0.02,1.523-0.046,2.157-0.182
						c0.055-0.01,0.11-0.024,0.163-0.035c0.671-0.156,1.25-0.394,1.753-0.69c0.035-0.021,0.071-0.043,0.104-0.065
						c0.052-0.03,0.101-0.061,0.15-0.095c0.044-0.028,0.087-0.059,0.188-0.13c0.06-0.042,0.117-0.085,0.174-0.131
						c0.066-0.05,0.128-0.101,0.19-0.155c0.062-0.051,0.122-0.104,0.182-0.161c0.119-0.11,0.23-0.224,0.339-0.343
						c0.614-0.667,1.057-1.449,1.408-2.239c0.914-2.058,0.677-4.938,2.181-5.271c0.056-0.012,0.118-0.022,0.18-0.026
						c0.062-0.007,0.127-0.008,0.195-0.008c2.045,0.03,1.817,3.167,2.962,5.406c1.141,2.243,3.033,4.43,7.469,4.492
						c0.198,0.004,0.39,0,0.574-0.005c0.157-0.007,0.31-0.015,0.457-0.031c0.381-0.027,0.738-0.081,1.068-0.151
						c0.115-0.026,0.227-0.05,0.336-0.078c0.109-0.028,0.218-0.061,0.321-0.091c0.067-0.018,0.135-0.041,0.203-0.064
						c0.452-0.157,0.848-0.346,1.201-0.564c0.14-0.088,0.271-0.177,0.403-0.271c0.253-0.187,0.477-0.385,0.694-0.609
						c0.665-0.692,1.067-1.457,1.344-2.081c0.689-1.555,0.869-4.372,1.211-5.839c0.092-0.39,0.212-0.661,0.339-0.849
						c0.287-0.425,0.972-1.163,0.999-2.104c0.027-0.941-0.636-1.761-1.235-1.848c-0.348-0.05-0.712-0.099-1.088-0.145
						c-3.5-0.424-8.064-0.611-10.794,0.13c-3.423,0.936-4.61,2.033-6.519,2.006c-1.785-0.042-2.944-1.18-6.186-2.239
						c-2.587-0.841-6.853-0.816-10.111-0.518c-0.349,0.032-0.686,0.067-1.009,0.106C145.277,88.068,144.686,88.914,144.754,89.854z
						 M167.272,91.995c0.181-0.266,0.521-0.541,0.974-0.796c0.056-0.036,0.114-0.067,0.176-0.098
						c0.032-0.019,0.064-0.035,0.097-0.051c0.152-0.079,0.313-0.156,0.483-0.228c0.141-0.062,0.291-0.124,0.446-0.183
						c0.449-0.174,0.946-0.329,1.461-0.46c0.191-0.048,0.385-0.095,0.582-0.135c0.495-0.107,0.999-0.185,1.504-0.237
						c0.121-0.013,0.239-0.025,0.351-0.028c3.296-0.268,5.353,0.509,6.101,1.185c0.775,0.702,0.425,3.746,0.111,5.292
						c-0.008,0.038-0.016,0.076-0.024,0.115c-0.008,0.038-0.016,0.079-0.024,0.12c-0.038,0.187-0.083,0.399-0.141,0.624
						c-0.033,0.124-0.069,0.255-0.107,0.387c-0.003,0.007-0.003,0.012-0.006,0.016c-0.06,0.209-0.133,0.424-0.22,0.646v0.002
						c-0.028,0.072-0.059,0.148-0.09,0.221c-0.016,0.043-0.036,0.087-0.059,0.132c-0.02,0.049-0.042,0.097-0.068,0.147
						c-0.028,0.061-0.059,0.124-0.091,0.185c-0.034,0.069-0.071,0.138-0.111,0.205c-0.04,0.072-0.083,0.144-0.132,0.218
						c-0.043,0.071-0.092,0.146-0.144,0.219c-0.818,1.183-2.202,2.18-4.607,2.173c-2.379-0.005-3.895-0.823-4.866-1.855
						l-0.003-0.001c-0.962-1.029-1.39-2.266-1.595-3.123C166.864,94.952,166.629,92.936,167.272,91.995z M147.886,90.382
						c0.182-0.174,0.449-0.352,0.805-0.51c0.022-0.011,0.041-0.019,0.063-0.028c0.11-0.05,0.227-0.096,0.356-0.14
						c0.069-0.023,0.144-0.049,0.218-0.07c0.058-0.017,0.121-0.037,0.181-0.051c0.041-0.014,0.083-0.022,0.121-0.032
						c0.017-0.006,0.033-0.009,0.047-0.011c0.058-0.015,0.119-0.028,0.179-0.042c0.234-0.052,0.488-0.093,0.758-0.125
						c0.133-0.017,0.27-0.032,0.411-0.04c0.08-0.008,0.163-0.012,0.248-0.018c0.064-0.004,0.127-0.006,0.191-0.008
						c0.169-0.004,0.345-0.008,0.525-0.005c0.064,0.001,0.128,0.001,0.194,0.003c0.058,0.001,0.119,0.003,0.18,0.005
						c0.471,0.018,0.978,0.065,1.519,0.143c2.35,0.34,4.805,1.429,5.445,2.395c0.64,0.965,0.497,2.973,0.19,4.693
						c-0.062,0.34-0.153,0.735-0.297,1.152c-0.008,0.028-0.021,0.058-0.031,0.09c-0.013,0.038-0.026,0.077-0.042,0.117
						c-0.01,0.026-0.018,0.052-0.029,0.078c-0.018,0.046-0.036,0.093-0.058,0.138c-0.04,0.097-0.082,0.19-0.127,0.285
						c-0.037,0.08-0.079,0.163-0.122,0.243c-0.016,0.03-0.032,0.059-0.048,0.086c-0.03,0.052-0.062,0.108-0.097,0.163
						c-0.027,0.046-0.056,0.093-0.088,0.141c-0.003,0.007-0.008,0.015-0.013,0.023c-0.818,1.253-2.278,2.333-4.894,2.235
						c-0.986-0.032-1.801-0.253-2.466-0.592c-2.335-1.187-2.932-3.812-3.21-5.029C147.646,94.116,147.189,91.054,147.886,90.382z"/>
				</g>
				<path id="XMLID_1140_" style="fill:#874C4C;" d="M163.763,93.46l-0.35,12.855l-7.174-2.071l6.687-10.89
					C163.236,93.323,163.511,93.368,163.763,93.46z"/>
			</g>
		</g>
	</g>
</g>
<g id="Speech_bubble">
	<g id="Speech_Bubble_6_">
		<g id="Speech_Bubble_7_">
			<ellipse id="XMLID_398_" style="fill:#27DEBF;" cx="264.02" cy="62.643" rx="37.051" ry="32.452"/>
			<path id="XMLID_395_" style="fill:#27DEBF;" d="M234.445,81.406c-0.203,4.354-3.883,12.132-10.539,14.962
				c-0.419,0.178-0.37,0.781,0.076,0.874c3.636,0.757,13.342,1.672,20.501-7.765L234.445,81.406z"/>
		</g>
		<g>
			<path style="fill:#FAFAFA;" d="M238.9,60.068c0.078-1.457,0.396-2.829,0.956-4.116c0.559-1.288,1.352-2.406,2.38-3.355
				c1.027-0.949,2.275-1.703,3.745-2.263c1.47-0.56,3.167-0.839,5.092-0.839c1.898,0,3.59,0.279,5.072,0.839
				c1.482,0.56,2.737,1.314,3.765,2.263c1.027,0.949,1.82,2.067,2.38,3.355c0.56,1.287,0.878,2.659,0.956,4.116
				c0.052,1.118,0.078,2.289,0.078,3.511c0,1.224-0.026,2.367-0.078,3.434c-0.078,1.457-0.396,2.829-0.956,4.116
				c-0.56,1.288-1.353,2.413-2.38,3.375c-1.027,0.963-2.282,1.717-3.765,2.264c-1.482,0.546-3.174,0.819-5.072,0.819
				c-1.925,0-3.622-0.273-5.092-0.819c-1.47-0.547-2.718-1.301-3.745-2.264c-1.028-0.962-1.821-2.087-2.38-3.375
				c-0.56-1.287-0.878-2.659-0.956-4.116c-0.053-1.066-0.078-2.21-0.078-3.434C238.822,62.357,238.847,61.186,238.9,60.068z
				 M256.028,66.818c0.025-0.469,0.052-0.988,0.078-1.561c0.025-0.571,0.039-1.156,0.039-1.755c0-0.599-0.014-1.177-0.039-1.736
				c-0.026-0.56-0.053-1.06-0.078-1.503c-0.053-0.649-0.189-1.248-0.409-1.794c-0.222-0.547-0.534-1.021-0.937-1.425
				c-0.404-0.402-0.904-0.722-1.503-0.955c-0.599-0.234-1.301-0.352-2.106-0.352c-0.807,0-1.509,0.117-2.106,0.352
				c-0.599,0.233-1.1,0.553-1.503,0.955c-0.403,0.404-0.715,0.878-0.936,1.425c-0.222,0.546-0.358,1.145-0.41,1.794
				c-0.053,0.443-0.085,0.943-0.098,1.503c-0.014,0.56-0.02,1.138-0.02,1.736c0,0.599,0.006,1.184,0.02,1.755
				c0.013,0.573,0.045,1.093,0.098,1.561c0.104,1.301,0.553,2.38,1.346,3.238c0.794,0.858,1.996,1.287,3.609,1.287
				c1.612,0,2.81-0.429,3.59-1.287C255.443,69.198,255.897,68.118,256.028,66.818z"/>
			<path style="fill:#FAFAFA;" d="M290.948,75.908c0.078,0.104,0.117,0.247,0.117,0.429c0,0.234-0.085,0.436-0.254,0.604
				c-0.17,0.17-0.371,0.254-0.604,0.254h-6.204c-0.364,0-0.663-0.078-0.898-0.234c-0.234-0.156-0.468-0.377-0.702-0.663
				l-7.374-9.286v9.13c0,0.287-0.104,0.534-0.313,0.741c-0.208,0.209-0.455,0.313-0.741,0.313h-5.111
				c-0.286,0-0.533-0.104-0.741-0.313c-0.208-0.207-0.311-0.454-0.311-0.741V50.938c0-0.286,0.103-0.533,0.311-0.741
				s0.455-0.313,0.741-0.313h5.111c0.286,0,0.533,0.104,0.741,0.313c0.208,0.208,0.313,0.455,0.313,0.741v8.232l6.867-8.428
				c0.13-0.156,0.299-0.338,0.507-0.546s0.559-0.313,1.054-0.313h6.086c0.234,0,0.436,0.085,0.605,0.254
				c0.169,0.169,0.253,0.37,0.253,0.604c0,0.183-0.039,0.325-0.117,0.43l-9.637,11.782L290.948,75.908z"/>
		</g>
	</g>
</g>
<g id="Icons">
	<g id="Like_icon_2_">
		<polygon style="fill:#E0E0E0;" points="359.616,93.322 354.012,95.01 349.957,81.484 355.552,79.797 		"/>
		<path style="fill:#E0E0E0;" d="M377.133,81.309c0.218,0.726-0.501,2.289-1.589,2.618c0,0,0.522,0.552,0.786,1.432
			c0.322,1.047-0.534,2.455-2.218,2.957c-1.676,0.502-12.83,3.861-12.83,3.861l-3.776-12.563l-0.009-0.001
			c0,0,2.177-5.557,2.284-6.393c0.127-0.823-1.175-3.919-1.35-4.501c-0.142-0.474,1.899-1.336,3.542-0.674
			c0.379,0.155,0.738,0.385,1.047,0.724c0.643,0.704,1.124,1.394,1.471,2.107c0.554,1.101,0.781,2.247,0.781,3.547l7.751-2.332
			c0.647-0.194,1.212-0.138,1.659,0.052c0.691,0.285,1.135,0.878,1.279,1.357c0.357,1.133-0.304,2.003-0.659,2.341
			c0,0,1.653-0.136,2.12,1.424c0.262,0.874-0.172,2.03-1.279,2.599C376.144,79.864,376.808,80.224,377.133,81.309z"/>
	</g>
	<g id="Like_icon_1_">
		<polygon style="fill:#E0E0E0;" points="440.005,233.613 432.815,231.884 437.005,214.543 444.186,216.266 		"/>
		<path style="fill:#E0E0E0;" d="M466.771,231.662c-0.225,0.931-2.004,2.178-3.402,1.844c0,0,0.218,0.935-0.054,2.063
			c-0.315,1.347-2.146,2.339-4.304,1.814c-2.149-0.519-16.46-3.96-16.46-3.96l3.883-16.113l-0.009-0.007
			c0,0,5.916-4.677,6.564-5.521c0.663-0.817,1.214-5.024,1.395-5.771c0.147-0.608,2.923-0.248,4.294,1.521
			c0.314,0.41,0.56,0.89,0.681,1.457c0.253,1.178,0.338,2.237,0.262,3.236c-0.097,1.555-0.578,2.949-1.407,4.368l9.944,2.393
			c0.83,0.201,1.411,0.621,1.777,1.114c0.573,0.752,0.679,1.68,0.53,2.296c-0.333,1.464-1.608,1.992-2.211,2.135
			c0,0,1.89,0.905,1.407,2.904c-0.271,1.121-1.48,2.105-3.052,2.021C466.612,229.456,467.107,230.271,466.771,231.662z"/>
	</g>
	<g id="Like_icon_4_">
		<polygon style="fill:#E0E0E0;" points="76.823,223.236 84.671,225.599 90.35,206.659 82.514,204.297 		"/>
		<path style="fill:#E0E0E0;" d="M52.293,206.413c-0.305,1.016,0.701,3.205,2.225,3.666c0,0-0.732,0.773-1.101,2.005
			c-0.451,1.466,0.747,3.439,3.106,4.141c2.347,0.704,17.967,5.407,17.967,5.407l5.287-17.593l0.012-0.001
			c0,0-3.049-7.782-3.198-8.953c-0.177-1.152,1.646-5.488,1.89-6.303c0.199-0.664-2.659-1.871-4.96-0.944
			c-0.53,0.217-1.033,0.539-1.466,1.014c-0.9,0.986-1.574,1.953-2.059,2.951c-0.776,1.542-1.094,3.146-1.094,4.967l-10.855-3.266
			c-0.907-0.271-1.698-0.194-2.324,0.073c-0.968,0.399-1.589,1.229-1.79,1.901c-0.499,1.587,0.426,2.805,0.923,3.279
			c0,0-2.315-0.19-2.97,1.994c-0.367,1.224,0.241,2.842,1.792,3.639C53.679,204.39,52.749,204.894,52.293,206.413z"/>
	</g>
</g>
</svg>
